<svg width="77" height="139" viewBox="0 0 77 139" fill="none" xmlns="http://www.w3.org/2000/svg">
<path d="M13.3333 94.667C13.3333 92.9983 12.6705 91.398 11.4905 90.2181C10.3106 89.0382 8.71032 88.3753 7.04167 88.3753C5.37301 88.3753 3.7727 89.0382 2.59279 90.2181C1.41287 91.398 0.75 92.9983 0.75 94.667C0.75999 103.007 4.07755 111.003 9.97497 116.9C15.8724 122.798 23.8681 126.115 32.2083 126.125V132.417C32.2083 134.086 32.8712 135.686 34.0511 136.866C35.231 138.046 36.8313 138.709 38.5 138.709C40.1687 138.709 41.769 138.046 42.9489 136.866C44.1288 135.686 44.7917 134.086 44.7917 132.417V126.125C53.1349 126.125 61.1365 122.811 67.0361 116.911C72.9356 111.012 76.25 103.01 76.25 94.667C76.25 86.3237 72.9356 78.3222 67.0361 72.4226C61.1365 66.523 53.1349 63.2087 44.7917 63.2087V25.4587C49.7976 25.4587 54.5986 27.4473 58.1383 30.987C61.6781 34.5268 63.6667 39.3277 63.6667 44.3337C63.6667 46.0023 64.3295 47.6026 65.5094 48.7825C66.6894 49.9624 68.2897 50.6253 69.9583 50.6253C71.627 50.6253 73.2273 49.9624 74.4072 48.7825C75.5871 47.6026 76.25 46.0023 76.25 44.3337C76.24 35.9935 72.9225 27.9977 67.025 22.1003C61.1276 16.2029 53.1319 12.8853 44.7917 12.8753V6.58366C44.7917 4.915 44.1288 3.31469 42.9489 2.13478C41.769 0.954862 40.1687 0.291992 38.5 0.291992C36.8313 0.291992 35.231 0.954862 34.0511 2.13478C32.8712 3.31469 32.2083 4.915 32.2083 6.58366V12.8753C23.8651 12.8753 15.8635 16.1897 9.96393 22.0893C4.06435 27.9888 0.75 35.9904 0.75 44.3337C0.75 52.6769 4.06435 60.6785 9.96393 66.5781C15.8635 72.4776 23.8651 75.792 32.2083 75.792V113.542C27.2024 113.542 22.4014 111.553 18.8617 108.014C15.3219 104.474 13.3333 99.6729 13.3333 94.667ZM44.7917 75.792C49.7976 75.792 54.5986 77.7806 58.1383 81.3203C61.6781 84.8601 63.6667 89.661 63.6667 94.667C63.6667 99.6729 61.6781 104.474 58.1383 108.014C54.5986 111.553 49.7976 113.542 44.7917 113.542V75.792ZM13.3333 44.3337C13.3333 39.3277 15.3219 34.5268 18.8617 30.987C22.4014 27.4473 27.2024 25.4587 32.2083 25.4587V63.2087C27.2024 63.2087 22.4014 61.22 18.8617 57.6803C15.3219 54.1405 13.3333 49.3396 13.3333 44.3337Z" fill="#6CC196"/>
</svg>
