<svg width="34" height="28" viewBox="0 0 34 28" fill="none" xmlns="http://www.w3.org/2000/svg">
<path d="M34 1C34 0.447715 33.5523 0 33 0H1C0.447716 0 0 0.447715 0 1V27C0 27.5523 0.447715 28 1 28H33C33.5523 28 34 27.5523 34 27V1ZM30.6 6.45429C30.6 6.79442 30.4271 7.11123 30.1411 7.29527L17.5411 15.4019C17.2115 15.6139 16.7885 15.6139 16.4589 15.4019L3.85893 7.29527C3.57289 7.11123 3.4 6.79442 3.4 6.45429V5.33247C3.4 4.54114 4.27558 4.06333 4.94107 4.4915L16.4589 11.9019C16.7885 12.1139 17.2115 12.1139 17.5411 11.9019L29.0589 4.4915C29.7244 4.06333 30.6 4.54114 30.6 5.33247V6.45429Z" fill="black"/>
</svg>
