<svg width="60" height="58" viewBox="0 0 60 58" fill="none" xmlns="http://www.w3.org/2000/svg">
<path d="M28.0149 16.4478C21.9398 16.4478 17.0149 21.3726 17.0149 27.4478V40.0746C17.0149 46.1498 21.9398 51.0746 28.0149 51.0746H41.8358C47.911 51.0746 52.8358 46.1498 52.8358 40.0746V27.4478C52.8358 21.3726 47.911 16.4478 41.8358 16.4478H28.0149ZM46.8657 20.2952C47.9642 20.2952 48.8557 21.157 48.8557 22.2189C48.8557 23.2808 47.9642 24.1426 46.8657 24.1426C45.7672 24.1426 44.8756 23.2808 44.8756 22.2189C44.8756 21.157 45.7672 20.2952 46.8657 20.2952ZM34.9254 24.1426C40.4199 24.1426 44.8756 28.4498 44.8756 33.7612C44.8756 39.0726 40.4199 43.3798 34.9254 43.3798C29.4308 43.3798 24.9751 39.0726 24.9751 33.7612C24.9751 28.4498 29.4308 24.1426 34.9254 24.1426ZM34.9254 27.99C33.342 27.99 31.8235 28.5981 30.7038 29.6804C29.5842 30.7627 28.9552 32.2306 28.9552 33.7612C28.9552 35.2918 29.5842 36.7597 30.7038 37.842C31.8235 38.9243 33.342 39.5323 34.9254 39.5323C36.5088 39.5323 38.0273 38.9243 39.1469 37.842C40.2665 36.7597 40.8955 35.2918 40.8955 33.7612C40.8955 32.2306 40.2665 30.7627 39.1469 29.6804C38.0273 28.5981 36.5088 27.99 34.9254 27.99Z" fill="black"/>
</svg>
