<svg width="61" height="61" viewBox="0 0 61 61" fill="none" xmlns="http://www.w3.org/2000/svg">
<path d="M56.3392 5.4199C56.202 4.89377 55.7845 4.49346 55.2622 4.37909L55.2527 4.37718C55.165 4.35812 55.0639 4.34668 54.961 4.34668C54.5073 4.34668 54.1013 4.55446 53.8363 4.88234L53.8344 4.88424C50.5976 8.70627 46.3562 11.5847 41.5162 13.1192L41.3275 13.1707C38.1002 14.223 34.3468 14.974 30.4676 15.2733L30.2998 15.2828C26.047 15.4411 22.0553 16.3885 18.4125 17.984L18.6222 17.902C12.3315 21.3104 8.13397 27.8622 8.13397 35.3938C8.13397 35.512 8.13588 35.6301 8.13778 35.7483V35.7312C8.15494 36.3088 8.19497 36.8787 8.25978 37.4468C8.55335 39.7305 9.18241 41.8026 10.1012 43.7088L10.0478 43.5868C7.11413 47.365 4.58072 51.6789 2.64016 56.3015L2.501 56.6771C2.42856 56.8429 2.38663 57.0354 2.38663 57.2394C2.38663 58.0286 3.02713 58.6691 3.81632 58.6691C4.40344 58.6691 4.90669 58.3164 5.12782 57.8113L5.13163 57.8017C6.96925 53.404 9.1195 49.6163 11.6605 46.1298L11.5481 46.2918C13.7155 49.6373 16.7121 52.2774 20.2539 53.9568L20.3816 54.0121C23.0904 55.2493 26.2586 55.9717 29.5945 55.9717C29.646 55.9717 29.6956 55.9717 29.7451 55.9717H29.7375C33.3384 55.9546 36.7639 55.2245 39.8864 53.9111L39.711 53.9759C49.7417 49.4295 56.8711 40.0488 58.1597 28.8896L58.173 28.7429C58.4533 26.5888 58.6134 24.0992 58.6134 21.5716C58.6134 15.8185 57.7823 10.258 56.2363 5.00624L56.3392 5.4199ZM55.3403 28.3178C54.189 38.6058 47.7325 47.1572 38.8055 51.25L38.6263 51.3224C36.0834 52.4528 33.1154 53.1124 29.9948 53.1124C26.9468 53.1124 24.0454 52.4852 21.4148 51.351L21.5559 51.4044C18.1056 49.7783 15.3224 47.2144 13.4696 44.0386L13.4238 43.9528C19.7468 36.6862 27.9685 33.0662 39.732 31.9206C40.4563 31.8443 41.0168 31.2381 41.0168 30.4985C41.0168 29.7093 40.3763 29.0688 39.5871 29.0688C39.5413 29.0688 39.4956 29.0707 39.4498 29.0746H39.4556C28.7062 29.473 19.0949 34.027 12.1142 41.1659L12.1066 41.1735C11.6415 39.9974 11.285 38.6268 11.1039 37.2028L11.0944 37.117C11.0372 36.629 11.0029 36.141 10.9895 35.653C10.9876 35.5596 10.9857 35.4471 10.9857 35.3366C10.9857 28.9354 14.5485 23.3672 19.7983 20.506L19.886 20.4621C23.0313 19.1125 26.6818 18.2661 30.5133 18.127L30.5667 18.1251C34.8501 17.7953 38.8208 16.9966 42.6009 15.7766L42.2349 15.8795C46.9014 14.3545 50.9026 11.9107 54.2042 8.74249L54.1928 8.75202C55.1898 12.6026 55.7616 17.0213 55.7616 21.5754C55.7616 23.9525 55.6053 26.2933 55.3041 28.5866L55.3327 28.3159L55.3403 28.3178Z" fill="white"/>
</svg>
