<svg width="36" height="36" viewBox="0 0 36 36" fill="none" xmlns="http://www.w3.org/2000/svg">
<path d="M33.2493 3.1988C33.1683 2.8883 32.9219 2.65205 32.6137 2.58455L32.6081 2.58343C32.5563 2.57218 32.4967 2.56543 32.4359 2.56543C32.1682 2.56543 31.9286 2.68805 31.7722 2.88155L31.7711 2.88268C29.8608 5.1383 27.3577 6.83705 24.5013 7.74268L24.3899 7.77305C22.4853 8.39405 20.2702 8.83731 17.9808 9.01393L17.8818 9.01956C15.3719 9.11293 13.0162 9.67205 10.8663 10.6137L10.9901 10.5653C7.27757 12.5768 4.80032 16.4434 4.80032 20.8883C4.80032 20.9581 4.80145 21.0278 4.80257 21.0976V21.0874C4.8127 21.4283 4.83632 21.7647 4.87457 22.0999C5.04782 23.4477 5.41907 24.6706 5.96132 25.7956L5.92982 25.7236C4.19845 27.9533 2.70332 30.4992 1.55807 33.2273L1.47595 33.4489C1.4332 33.5468 1.40845 33.6604 1.40845 33.7808C1.40845 34.2466 1.78645 34.6246 2.2522 34.6246C2.5987 34.6246 2.8957 34.4164 3.0262 34.1183L3.02845 34.1127C4.11295 31.5173 5.38195 29.2819 6.88157 27.2243L6.8152 27.3199C8.09432 29.2943 9.86282 30.8524 11.9531 31.8436L12.0284 31.8762C13.6271 32.6063 15.4968 33.0327 17.4656 33.0327C17.4959 33.0327 17.5252 33.0327 17.5544 33.0327H17.5499C19.6751 33.0226 21.6967 32.5917 23.5394 31.8166L23.4359 31.8548C29.3557 29.1717 33.5632 23.6356 34.3237 17.0498L34.3316 16.9632C34.4969 15.6919 34.5914 14.2227 34.5914 12.7309C34.5914 9.33568 34.1009 6.05405 33.1886 2.95468L33.2493 3.1988ZM32.6598 16.7123C31.9803 22.7839 28.1699 27.8307 22.9016 30.2461L22.7958 30.2888C21.2951 30.9559 19.5434 31.3452 17.7018 31.3452C15.9029 31.3452 14.1907 30.9751 12.6382 30.3057L12.7214 30.3372C10.6852 29.3776 9.0427 27.8644 7.9492 25.9902L7.9222 25.9396C11.6538 21.6511 16.5059 19.5147 23.4483 18.8386C23.8758 18.7936 24.2066 18.4358 24.2066 17.9993C24.2066 17.5336 23.8286 17.1556 23.3628 17.1556C23.3358 17.1556 23.3088 17.1567 23.2818 17.1589H23.2852C16.9413 17.3941 11.2691 20.0817 7.14932 24.2948L7.14482 24.2993C6.87032 23.6052 6.65995 22.7963 6.55307 21.9559L6.54745 21.9053C6.5137 21.6173 6.49345 21.3293 6.48557 21.0413C6.48445 20.9862 6.48332 20.9198 6.48332 20.8546C6.48332 17.0768 8.58595 13.7907 11.6842 12.1021L11.7359 12.0762C13.5922 11.2797 15.7466 10.7802 18.0078 10.6981L18.0393 10.6969C20.5672 10.5023 22.9106 10.0309 25.1414 9.31093L24.9254 9.37168C27.6794 8.47168 30.0408 7.02943 31.9893 5.15968L31.9826 5.1653C32.5709 7.4378 32.9084 10.0456 32.9084 12.7332C32.9084 14.1361 32.8162 15.5176 32.6384 16.8709L32.6553 16.7112L32.6598 16.7123Z" fill="black"/>
</svg>
