<svg width="45" height="43" viewBox="0 0 45 43" fill="none" xmlns="http://www.w3.org/2000/svg">
<path d="M39.375 5.375H5.625V37.625H39.375V5.375ZM16.875 30.4583H12.1444V17.9167H16.875V30.4583ZM14.4262 15.618C12.9806 15.618 12.015 14.697 12.015 13.468C12.015 12.2389 12.9787 11.318 14.5856 11.318C16.0312 11.318 16.9969 12.2389 16.9969 13.468C16.9969 14.697 16.0331 15.618 14.4262 15.618ZM33.75 30.4583H29.1712V23.6034C29.1712 21.7078 27.9506 21.2707 27.4931 21.2707C27.0356 21.2707 25.5094 21.5627 25.5094 23.6034C25.5094 23.8955 25.5094 30.4583 25.5094 30.4583H20.7787V17.9167H25.5094V19.6671C26.1187 18.6459 27.3394 17.9167 29.6287 17.9167C31.9181 17.9167 33.75 19.6671 33.75 23.6034V30.4583Z" fill="black"/>
</svg>
