<svg width="134" height="134" viewBox="0 0 134 134" fill="none" xmlns="http://www.w3.org/2000/svg">
<g clip-path="url(#clip0_103_347)">
<path d="M131.902 33.2904C133.061 33.2904 134 32.3513 134 31.1922V11.05C134 4.95721 129.043 0 122.95 0H11.05C4.95721 0 0 4.95721 0 11.05V91.6178C0 97.7109 4.95721 102.668 11.05 102.668H22.2401C23.3987 102.668 24.3383 101.729 24.3383 100.57C24.3383 99.4107 23.399 98.4714 22.2401 98.4714H11.05C7.27081 98.4714 4.19614 95.397 4.19614 91.6175V91.4778H129.804V91.6175C129.804 95.397 126.729 98.4714 122.95 98.4714H31.1922C30.0335 98.4714 29.094 99.4105 29.094 100.57C29.094 101.728 30.0333 102.668 31.1922 102.668H53.2964L49.9904 120.851H46.8581C43.2331 120.851 40.284 123.801 40.284 127.426V131.902C40.284 133.06 41.2233 134 42.3822 134H91.618C92.7769 134 93.7162 133.061 93.7162 131.902V127.426C93.7162 123.801 90.7672 120.851 87.1421 120.851H84.0104L80.7044 102.668H122.95C129.043 102.668 134 97.7106 134 91.6178V40.1448C134 38.9859 133.061 38.0466 131.902 38.0466C130.743 38.0466 129.804 38.9856 129.804 40.1448V87.2816H4.19614V15.3862H129.804V31.1924C129.804 32.3513 130.743 33.2904 131.902 33.2904ZM57.5609 102.668H76.4386L79.7449 120.852H54.2548L57.5609 102.668ZM87.1419 125.048C88.4531 125.048 89.5198 126.115 89.5198 127.426V129.804H44.4801V127.426C44.4801 126.115 45.5469 125.048 46.8581 125.048H87.1419ZM4.19614 11.19V11.0503C4.19614 7.27081 7.27081 4.1964 11.05 4.1964H122.95C126.729 4.1964 129.804 7.27081 129.804 11.0503V11.19H4.19614Z" fill="#6CC196"/>
<path d="M116.236 22.3801H114.587L115.481 21.486C116.301 20.6663 116.301 19.3381 115.481 18.5187C114.662 17.6995 113.333 17.6995 112.514 18.5187L109.522 21.5112L106.529 18.5187C105.71 17.6995 104.382 17.6995 103.562 18.5187C102.743 19.3384 102.743 20.6666 103.562 21.486L104.456 22.3801H102.808C101.649 22.3801 100.709 23.3191 100.709 24.4783V35.8081H69.2379C61.9111 35.8081 55.95 41.7693 55.95 49.0961C55.95 56.4229 61.9111 62.3841 69.2379 62.3841H100.57C105.583 62.3841 109.662 66.4624 109.662 71.4759C109.662 76.4894 105.583 80.5677 100.57 80.5677H37.7929C39.4983 78.3722 41.7975 75.3062 44.1182 71.886C50.2984 62.7772 53.4322 55.8625 53.4322 51.334C53.4322 40.3049 44.4592 31.3319 33.4301 31.3319C22.401 31.3319 13.428 40.3049 13.428 51.334C13.428 55.8625 16.5618 62.7772 22.742 71.886C27.1829 78.4311 31.5483 83.6856 31.8106 83.9999C32.2626 84.4519 32.7677 84.7639 33.4301 84.7639H100.57C107.897 84.7639 113.858 78.8027 113.858 71.4759C113.858 64.1491 107.897 58.1879 100.57 58.1879H69.2379C64.2247 58.1879 60.1461 54.1096 60.1461 49.0961C60.1461 44.0826 64.2247 40.0042 69.2379 40.0042H102.808H116.236C117.395 40.0042 118.334 39.0652 118.334 37.906V24.4783C118.334 23.3194 117.395 22.3801 116.236 22.3801ZM17.6241 51.3343C17.6241 42.6191 24.7146 35.5283 33.4301 35.5283C42.1456 35.5283 49.2358 42.6188 49.2358 51.3343C49.2358 58.0903 38.9859 72.3623 33.4301 79.3416C27.8743 72.3621 17.6241 58.0903 17.6241 51.3343ZM104.906 26.5765H107.424V29.0942H104.906V26.5765ZM104.906 35.8081V33.2903H107.424V35.6683C107.424 35.7157 107.428 35.7618 107.431 35.8081H104.906ZM114.138 35.8081H111.613C111.616 35.7618 111.62 35.7154 111.62 35.6683V33.2903H113.998C114.045 33.2903 114.092 33.2864 114.138 33.2833V35.8081ZM114.138 29.1013C114.092 29.0981 114.045 29.0942 113.998 29.0942H111.62V26.5765H114.138V29.1013Z" fill="#6CC196"/>
<path d="M33.4301 40.2842C27.337 40.2842 22.3801 45.2414 22.3801 51.3342C22.3801 57.427 27.3373 62.3842 33.4301 62.3842C39.5229 62.3842 44.4801 57.427 44.4801 51.3342C44.4801 45.2414 39.5229 40.2842 33.4301 40.2842ZM33.4301 58.1881C29.6509 58.1881 26.5762 55.1137 26.5762 51.3342C26.5762 47.5547 29.6509 44.4803 33.4301 44.4803C37.2093 44.4803 40.284 47.5547 40.284 51.3342C40.284 55.1137 37.2091 58.1881 33.4301 58.1881Z" fill="#6CC196"/>
</g>
<defs>
<clipPath id="clip0_103_347">
<rect width="134" height="134" fill="white"/>
</clipPath>
</defs>
</svg>
