<svg width="125" height="125" viewBox="0 0 125 125" fill="none" xmlns="http://www.w3.org/2000/svg">
<path d="M53.6875 97.7497C65.3736 97.7497 76.5811 93.1074 84.8444 84.8441C93.1077 76.5807 97.75 65.3733 97.75 53.6872C97.75 42.0011 93.1077 30.7936 84.8444 22.5303C76.5811 14.267 65.3736 9.62468 53.6875 9.62468C42.0014 9.62468 30.7939 14.267 22.5306 22.5303C14.2673 30.7936 9.62501 42.0011 9.62501 53.6872C9.62501 65.3733 14.2673 76.5807 22.5306 84.8441C30.7939 93.1074 42.0014 97.7497 53.6875 97.7497ZM94.6304 87.1482L124.179 116.697L116.697 124.178L87.1486 94.6301C76.6452 103.214 63.2446 107.433 49.7181 106.414C36.1916 105.396 23.574 99.2172 14.4747 89.157C5.37542 79.0968 0.490584 65.9243 0.830426 52.3638C1.17027 38.8033 6.70879 25.892 16.3006 16.3002C25.8923 6.70846 38.8036 1.16993 52.3641 0.83009C65.9247 0.490249 79.0972 5.37509 89.1574 14.4744C99.2175 23.5736 105.396 36.1912 106.415 49.7178C107.433 63.2443 103.214 76.6449 94.6304 87.1482Z" fill="#6CC196"/>
</svg>
